<svg data-name="Calque 1" xmlns="http://www.w3.org/2000/svg" viewBox="0 0 115.76 14.73"><path d="M.29 6.66a.996.996 0 000 1.41l6.36 6.36a.996.996 0 101.41-1.41L2.41 7.36l5.66-5.65A.996.996 0 106.66.3L.29 6.66zM35 8.37c.55 0 1-.45 1-1s-.45-1-1-1v2zM1 8.36h34v-2H1v2zm44.45.84v3.17h-1.58V3.96h3.29c.43 0 .81.07 1.13.22.32.14.58.32.79.55.22.22.38.48.48.78.11.29.17.58.17.89v.29c0 .31-.06.62-.17.92-.1.3-.26.56-.48.8-.21.23-.47.42-.79.56s-.7.22-1.13.22h-1.7zm0-1.51H47c.35 0 .63-.1.83-.29.21-.19.31-.44.31-.74v-.14c0-.3-.1-.55-.31-.74-.2-.19-.48-.29-.83-.29h-1.55V7.7zM51 6.42h2.52v.86h.22c.11-.33.3-.58.56-.76.27-.18.6-.28.97-.28.59 0 1.07.19 1.43.56.36.37.54.93.54 1.69v.26l-1.56.14v-.17c0-.33-.08-.59-.25-.78-.17-.2-.42-.3-.76-.3s-.6.12-.79.35c-.19.23-.29.56-.29 1v1.92h1.37v1.44h-4.1v-1.44h1.22V7.84H51V6.4zm8.97 3.47c0 .18.05.34.12.49.08.14.18.27.31.38.14.1.29.19.46.25.18.06.36.08.55.08.38 0 .66-.06.86-.19.2-.14.34-.3.43-.48l1.3.72c-.07.15-.17.31-.3.48-.13.16-.3.31-.5.44-.2.14-.45.25-.74.34-.29.09-.63.13-1.02.13-.45 0-.86-.07-1.22-.22s-.69-.35-.96-.62c-.26-.27-.47-.6-.62-1-.14-.39-.22-.84-.22-1.33v-.07c0-.46.08-.87.23-1.25a2.857 2.857 0 011.6-1.57c.37-.15.76-.23 1.18-.23.51 0 .95.09 1.32.28a2.751 2.751 0 011.44 1.59c.11.33.17.65.17.96v.8h-4.37zm1.43-2.27c-.38 0-.7.1-.94.3-.24.19-.4.42-.47.67h2.81c-.05-.28-.2-.51-.46-.7-.25-.18-.56-.28-.95-.28zm.04-3.72h1.61l-1.01 1.63h-1.22l.62-1.63zm10.36 6.29c-.14.7-.46 1.27-.97 1.7-.5.43-1.18.65-2.03.65-.44 0-.85-.07-1.24-.2-.38-.14-.7-.33-.98-.59a2.7 2.7 0 01-.66-.95c-.16-.38-.24-.8-.24-1.28v-.14c0-.48.08-.91.24-1.3.16-.38.38-.71.66-.98.29-.27.62-.48 1-.62s.79-.22 1.22-.22c.83 0 1.5.22 2.02.65.52.43.85 1 .98 1.7l-1.49.38c-.05-.35-.2-.66-.46-.91-.26-.26-.62-.38-1.08-.38-.22 0-.42.04-.61.12-.19.08-.36.2-.5.35-.14.14-.26.32-.35.54-.08.21-.12.44-.12.71v.07c0 .26.04.5.12.71.09.2.2.37.35.5.14.14.31.24.5.31.19.06.4.1.61.1.46 0 .82-.12 1.06-.35.25-.23.41-.54.48-.94l1.49.37zm2.87-.3c0 .18.05.34.12.49.08.14.18.27.31.38.14.1.29.19.46.25.18.06.36.08.55.08.38 0 .66-.06.86-.19.2-.14.34-.3.43-.48l1.3.72c-.07.15-.17.31-.3.48-.13.16-.3.31-.5.44-.2.14-.45.25-.74.34-.29.09-.63.13-1.02.13-.45 0-.86-.07-1.22-.22-.37-.14-.69-.35-.96-.62-.26-.27-.47-.6-.62-1-.14-.39-.22-.84-.22-1.33v-.07c0-.46.08-.87.23-1.25a2.857 2.857 0 011.6-1.57c.37-.15.76-.23 1.18-.23.51 0 .95.09 1.32.28a2.751 2.751 0 011.44 1.59c.11.33.17.65.17.96v.8h-4.37zm1.43-2.27c-.38 0-.7.1-.94.3-.24.19-.4.42-.47.67h2.81c-.05-.28-.2-.51-.46-.7-.25-.18-.56-.28-.95-.28zm.04-3.72h1.61l-1.01 1.63h-1.22l.62-1.63zm8.82 7.61h-.22c-.06.14-.14.27-.24.4-.09.12-.21.23-.36.32-.14.1-.32.17-.53.23-.2.06-.44.08-.73.08-.37 0-.71-.06-1.03-.19-.31-.14-.59-.33-.83-.59a2.81 2.81 0 01-.55-.96c-.13-.38-.19-.81-.19-1.3v-.22c0-.48.07-.91.2-1.28.14-.38.34-.69.58-.95.25-.26.53-.46.85-.6.33-.14.67-.2 1.03-.2.48 0 .86.09 1.14.28.28.18.5.43.66.76h.22V3.98h1.51v8.4h-1.51v-.86zm-1.58-.41c.47 0 .85-.15 1.14-.44.3-.3.44-.7.44-1.19v-.14c0-.49-.15-.88-.44-1.18-.29-.3-.67-.46-1.14-.46s-.86.15-1.15.44c-.29.29-.43.68-.43 1.19v.14c0 .5.14.9.43 1.2.3.29.68.43 1.15.43zm5.99-1.21c0 .18.05.34.12.49.08.14.18.27.31.38.14.1.29.19.46.25.18.06.36.08.55.08.38 0 .66-.06.86-.19.2-.14.34-.3.43-.48l1.3.72c-.07.15-.17.31-.3.48-.13.16-.3.31-.5.44-.2.14-.45.25-.74.34-.29.09-.63.13-1.02.13-.45 0-.86-.07-1.22-.22-.37-.14-.69-.35-.96-.62-.26-.27-.47-.6-.62-1-.14-.39-.22-.84-.22-1.33v-.07c0-.46.08-.87.23-1.25a2.857 2.857 0 011.6-1.57c.37-.15.76-.23 1.18-.23.51 0 .95.09 1.32.28a2.751 2.751 0 011.44 1.59c.11.33.17.65.17.96v.8h-4.37zm1.43-2.27c-.38 0-.7.1-.94.3-.24.19-.4.42-.47.67h2.81c-.05-.28-.2-.51-.46-.7-.25-.18-.56-.28-.95-.28zm6.1 4.75h-1.51V6.42h1.51v.89h.22c.14-.34.36-.6.66-.78s.66-.28 1.07-.28c.29 0 .56.05.8.14.26.09.48.23.67.42.19.19.34.44.44.73.11.3.17.65.17 1.06v3.77h-1.51V8.99c0-.42-.1-.76-.31-1-.2-.25-.49-.37-.88-.37-.45 0-.78.15-1.01.46-.22.3-.32.7-.32 1.2v3.1zm5.67-5.95h1.76V3.97h1.51v2.45h2.15v1.44h-2.15v2.71c0 .24.11.36.32.36h1.61v1.44h-2.52a.92.92 0 01-.67-.26.929.929 0 01-.25-.67V7.86h-1.76V6.42zm8.85 3.47c0 .18.05.34.12.49.08.14.18.27.31.38.14.1.29.19.46.25.18.06.36.08.55.08.38 0 .66-.06.86-.19.2-.14.34-.3.43-.48l1.3.72c-.07.15-.17.31-.3.48-.13.16-.3.31-.5.44-.2.14-.45.25-.74.34-.29.09-.63.13-1.02.13-.45 0-.86-.07-1.22-.22-.37-.14-.69-.35-.96-.62-.26-.27-.47-.6-.62-1-.14-.39-.22-.84-.22-1.33v-.07c0-.46.08-.87.23-1.25a2.857 2.857 0 011.6-1.57c.37-.15.76-.23 1.18-.23.51 0 .95.09 1.32.28a2.751 2.751 0 011.44 1.59c.11.33.17.65.17.96v.8h-4.37zm1.43-2.27c-.38 0-.7.1-.94.3-.24.19-.4.42-.47.67h2.81c-.05-.28-.2-.51-.46-.7-.25-.18-.56-.28-.95-.28z" fill="#e5e5e5"/></svg>