<svg data-name="Calque 1" xmlns="http://www.w3.org/2000/svg" viewBox="0 0 101.57 14.73"><path d="M4.68 6.53c0-.34-.13-.63-.4-.88-.26-.25-.62-.37-1.09-.37-.4 0-.72.08-.95.25-.23.16-.35.38-.35.66 0 .14.03.28.08.4.06.11.15.22.29.31.14.09.33.17.55.24.23.07.52.14.88.2.88.16 1.55.43 2.02.8.46.38.7.93.7 1.67v.14c0 .39-.07.75-.22 1.07-.14.31-.34.58-.6.8s-.58.4-.96.52-.8.18-1.27.18c-.55 0-1.04-.08-1.46-.23-.42-.16-.76-.38-1.04-.65-.28-.28-.49-.6-.64-.97C.08 10.29 0 9.89 0 9.45v-.36h1.58v.29c0 .5.14.91.43 1.21.3.3.75.44 1.37.44.48 0 .84-.1 1.07-.31.23-.21.35-.46.35-.74 0-.14-.02-.26-.07-.38a.814.814 0 00-.25-.34c-.12-.1-.28-.2-.49-.28-.21-.08-.47-.15-.79-.2-.42-.07-.81-.16-1.16-.28a3.46 3.46 0 01-.92-.47c-.26-.19-.46-.43-.6-.72A2.41 2.41 0 01.3 6.25v-.07c0-.34.07-.66.2-.95.14-.3.34-.55.59-.77.26-.22.56-.38.91-.5.36-.12.76-.18 1.2-.18.5 0 .94.07 1.32.22.38.14.7.32.96.56.26.24.46.52.59.83.14.31.2.64.2.98v.43H4.69v-.29zm7.2-.12h1.51v5.95h-1.51v-.86h-.22c-.26.69-.83 1.03-1.7 1.03-.3 0-.57-.05-.83-.14-.26-.1-.48-.24-.67-.44-.19-.2-.34-.45-.46-.74-.1-.3-.16-.66-.16-1.07V6.42h1.51v3.41c0 .42.1.76.3 1 .2.23.5.35.9.35.46 0 .79-.14 1-.43.22-.3.32-.7.32-1.2V6.43zm3.42 4.51h2.02V7.85h-1.87V6.41h3.38v4.51h1.73v1.44H15.3v-1.44zm3.9-6.28c0 .16-.03.31-.1.46-.06.14-.14.26-.24.36-.1.1-.23.18-.37.24-.14.06-.28.08-.43.08-.16 0-.31-.03-.44-.08a1.16 1.16 0 01-.61-.6c-.06-.14-.08-.3-.08-.46s.03-.31.08-.44a1.16 1.16 0 01.61-.6c.14-.06.28-.1.44-.1s.3.03.43.1c.14.06.27.14.37.24.1.1.18.22.24.36.06.14.1.28.1.44zm2.92 1.76h1.63l1.4 5.23h.22l1.4-5.23h1.63l-1.7 5.95h-2.88l-1.7-5.95zm11.62 5.09c-.16.38-.38.64-.67.8-.29.15-.62.23-1.01.23-.36 0-.7-.07-1.02-.2-.31-.14-.59-.34-.83-.6s-.43-.58-.58-.96c-.14-.38-.2-.8-.2-1.28v-.19c0-.47.07-.9.2-1.27.14-.38.32-.7.55-.96s.5-.46.8-.6c.31-.14.64-.22 1-.22.42 0 .76.07 1.02.22.26.14.47.37.62.67h.22v-.72h1.51v4.15c0 .24.11.36.32.36h.23v1.44h-1.03c-.27 0-.5-.08-.67-.24a.814.814 0 01-.25-.62h-.22zm-1.34-.41c.44 0 .79-.14 1.06-.43.26-.3.4-.7.4-1.2v-.14c0-.5-.13-.9-.4-1.19-.26-.3-.62-.44-1.06-.44s-.79.15-1.06.44c-.26.29-.4.68-.4 1.19v.14c0 .5.13.9.4 1.2.26.29.62.43 1.06.43zm6.35 1.27h-1.51V6.4h1.51v.89h.22c.14-.34.36-.6.66-.78.3-.18.66-.28 1.07-.28.29 0 .56.05.8.14.26.09.48.23.67.42.19.19.34.44.44.73.11.3.17.65.17 1.06v3.77h-1.51V8.97c0-.42-.1-.76-.31-1-.2-.25-.49-.37-.88-.37-.45 0-.78.15-1.01.46-.22.3-.32.7-.32 1.2v3.1zm5.67-5.95h1.76V3.95h1.51V6.4h2.15v1.44h-2.15v2.71c0 .24.11.36.32.36h1.61v1.44H47.1a.92.92 0 01-.67-.26.929.929 0 01-.25-.67V7.84h-1.76V6.4zm8.85 3.47c0 .18.05.34.12.49.08.14.18.27.31.38.14.1.29.19.46.25.18.06.36.08.55.08.38 0 .66-.06.86-.19.2-.14.34-.3.43-.48l1.3.72c-.07.15-.17.31-.3.48-.13.16-.3.31-.5.44-.2.14-.45.25-.74.34-.29.09-.63.13-1.02.13-.45 0-.86-.07-1.22-.22s-.69-.35-.96-.62c-.26-.27-.47-.6-.62-1-.14-.39-.22-.84-.22-1.33v-.07c0-.46.08-.87.23-1.25a2.857 2.857 0 011.6-1.57c.37-.15.76-.23 1.18-.23.51 0 .95.09 1.32.28a2.751 2.751 0 011.44 1.59c.11.33.17.65.17.96v.8h-4.37zM54.7 7.6c-.38 0-.7.1-.94.3-.24.19-.4.42-.47.67h2.81c-.05-.28-.2-.51-.46-.7-.25-.18-.56-.28-.95-.28zm46.58.47a.996.996 0 000-1.41L94.92.3a.996.996 0 10-1.41 1.41l5.66 5.66-5.66 5.66a.996.996 0 101.41 1.41l6.36-6.36zM66.57 6.36c-.55 0-1 .45-1 1s.45 1 1 1v-2zm34 0h-34v2h34v-2z" fill="#e5e5e5"/></svg>